HIERARCHY
ROOT Hips
{
 OFFSET 0.000000 0.000000 0.000000
 CHANNELS 6 Xposition Yposition Zposition Yrotation Xrotation Zrotation
 JOINT Chest
 {
  OFFSET 0.000000 9.585900 0.002600
  CHANNELS 3 Yrotation Xrotation Zrotation
  JOINT Chest2
  {
   OFFSET 0.000000 9.601200 -0.005300
   CHANNELS 3 Yrotation Xrotation Zrotation
   JOINT Chest3
   {
    OFFSET 0.000000 9.561800 0.000000
    CHANNELS 3 Yrotation Xrotation Zrotation
    JOINT Chest4
    {
     OFFSET 0.000000 9.552100 0.000000
     CHANNELS 3 Yrotation Xrotation Zrotation
     JOINT Neck
     {
      OFFSET 0.000000 14.453000 0.000000
      CHANNELS 3 Yrotation Xrotation Zrotation
      JOINT Head
      {
       OFFSET 0.000000 8.936500 -0.011300
       CHANNELS 3 Yrotation Xrotation Zrotation
       End Site
       {
        OFFSET 0.000000 17.073600 -0.006000
       }
      }
     }
     JOINT RightCollar
     {
      OFFSET -2.921100 9.558500 0.000000
      CHANNELS 3 Yrotation Xrotation Zrotation
      JOINT RightShoulder
      {
       OFFSET -13.519700 0.000000 0.000000
       CHANNELS 3 Yrotation Xrotation Zrotation
       JOINT RightElbow
       {
        OFFSET 0.000000 -29.696600 0.000000
        CHANNELS 3 Yrotation Xrotation Zrotation
        JOINT RightWrist
        {
         OFFSET 0.000000 -24.004700 0.000000
         CHANNELS 3 Yrotation Xrotation Zrotation
         End Site
         {
          OFFSET 0.000000 -17.728500 0.000000
         }
        }
       }
      }
     }
     JOINT LeftCollar
     {
      OFFSET 2.921100 9.558500 0.000000
      CHANNELS 3 Yrotation Xrotation Zrotation
      JOINT LeftShoulder
      {
       OFFSET 13.519700 0.000000 0.000000
       CHANNELS 3 Yrotation Xrotation Zrotation
       JOINT LeftElbow
       {
        OFFSET 0.000000 -29.696600 0.000000
        CHANNELS 3 Yrotation Xrotation Zrotation
        JOINT LeftWrist
        {
         OFFSET 0.000000 -24.004700 0.000000
         CHANNELS 3 Yrotation Xrotation Zrotation
         End Site
         {
          OFFSET 0.000000 -17.728500 0.000000
         }
        }
       }
      }
     }
    }
   }
  }
 }
 JOINT RightHip
 {
  OFFSET -7.771700 -0.012900 -0.001300
  CHANNELS 3 Yrotation Xrotation Zrotation
  JOINT RightKnee
  {
   OFFSET 0.000000 -40.869800 0.001200
   CHANNELS 3 Yrotation Xrotation Zrotation
   JOINT RightAnkle
   {
    OFFSET 0.000000 -39.717900 0.002100
    CHANNELS 3 Yrotation Xrotation Zrotation
    JOINT RightToe
    {
     OFFSET 0.000000 -4.965400 11.033500
     CHANNELS 3 Yrotation Xrotation Zrotation
     End Site
     {
      OFFSET 0.000000 -1.423100 5.872300
     }
    }
   }
  }
 }
 JOINT LeftHip
 {
  OFFSET 7.771700 -0.012900 -0.001300
  CHANNELS 3 Yrotation Xrotation Zrotation
  JOINT LeftKnee
  {
   OFFSET 0.000000 -40.869800 0.001200
   CHANNELS 3 Yrotation Xrotation Zrotation
   JOINT LeftAnkle
   {
    OFFSET 0.000000 -39.717900 0.002100
    CHANNELS 3 Yrotation Xrotation Zrotation
    JOINT LeftToe
    {
     OFFSET 0.000000 -4.965400 11.033500
     CHANNELS 3 Yrotation Xrotation Zrotation
     End Site
     {
      OFFSET 0.000000 -1.423100 5.872300
     }
    }
   }
  }
 }
}
MOTION
Frames: 9
Frame Time: 0.008333
-52.259808 52.871249 -14.416846 -178.463292 -19.117126 -2.413590 0.291801 16.295699 -0.053051 0.035785 1.610786 -0.008440 0.071628 2.742440 0.007590 0.389231 14.485830 0.080574 -1.309277 17.017230 1.132315 -1.615127 -7.791214 1.508511 0.707768 -1.212238 2.432575 0.337187 -5.489903 -4.830660 -83.999984 -72.957046 115.437063 -5.378360 1.355116 -7.535727 -5.555729 -0.566980 -0.014311 3.752478 -6.412255 11.367200 67.448906 -55.061819 -108.669303 3.396201 5.391830 3.485020 0.524621 -59.429706 12.101231 164.249124 86.565382 162.163744 -10.341921 -23.772891 14.867190 -0.017418 0.065219 0.207915 4.654034 -58.190800 -2.795266 121.476640 78.062119 120.070266 -6.087518 -19.440825 -0.976129 0.026939 0.117667 0.009642
-52.256983 52.873521 -14.415654 -178.463533 -19.092478 -2.410409 0.296316 16.296241 -0.042289 0.037262 1.617558 -0.007040 0.071620 2.744952 0.009148 0.397937 14.527485 0.110779 -1.307422 17.011807 1.134441 -1.624596 -7.818818 1.497764 0.698319 -1.247027 2.418574 0.366343 -5.507823 -4.840812 -84.020197 -72.960774 115.427845 -5.425791 1.323707 -7.554709 -5.575771 -0.603153 -0.027699 3.751338 -6.452899 11.347514 67.436091 -55.062612 -108.627305 3.393220 5.382963 3.472169 0.558470 -59.453857 12.049589 163.954421 86.559991 161.847760 -10.120553 -23.792129 14.769313 0.006092 0.043044 0.228976 4.657890 -58.212495 -2.802999 121.453790 78.060886 120.045868 -6.082507 -19.444953 -0.974783 0.018070 0.118620 0.005657
-52.255488 52.876544 -14.417395 -178.458376 -19.083787 -2.403429 0.291875 16.299379 -0.044219 0.044367 1.650002 0.009805 0.064860 2.729966 0.000276 0.395071 14.533149 0.119572 -1.314756 16.986804 1.118145 -1.609772 -7.781200 1.512377 0.720274 -1.209213 2.441561 0.354379 -5.573056 -4.882616 -83.974905 -72.944665 115.380664 -5.476164 1.300022 -7.569618 -5.578034 -0.593898 -0.026674 3.742809 -6.496351 11.335632 67.449342 -55.057850 -108.624146 3.396308 5.383021 3.468789 0.582056 -59.460377 12.015312 164.061493 86.559421 161.946390 -10.005106 -23.802051 14.691918 0.041634 0.033355 0.276426 4.665241 -58.216777 -2.819905 121.437359 78.059275 120.023905 -6.071343 -19.446302 -0.968043 0.006211 0.114893 -0.000757
-52.251151 52.880521 -14.422521 -178.470013 -19.094018 -2.411672 0.311498 16.320165 -0.023779 0.041793 1.644953 0.006736 0.076174 2.777345 0.031458 0.378877 14.511988 0.111927 -1.312082 16.995648 1.114746 -1.604311 -7.773790 1.513554 0.726350 -1.204685 2.434178 0.355625 -5.593932 -4.890616 -83.757717 -72.865489 115.176234 -5.399398 1.262058 -7.581807 -5.581505 -0.593324 -0.035183 3.738185 -6.531443 11.326601 67.464603 -55.056351 -108.623696 3.399421 5.392934 3.473424 0.584891 -59.447224 12.056774 165.141632 86.582331 163.039983 -10.040332 -23.792739 14.655600 0.000005 0.019582 0.229900 4.655312 -58.205632 -2.794725 121.438069 78.059787 120.019126 -6.060259 -19.432471 -0.958322 -0.011037 0.090172 -0.008159
-52.251145 52.883128 -14.425241 -178.471715 -19.085841 -2.400850 0.316611 16.334164 -0.016396 0.041249 1.646671 0.007737 0.074135 2.778561 0.035120 0.375810 14.516088 0.121945 -1.291366 17.045869 1.139687 -1.619369 -7.817388 1.485405 0.729825 -1.198212 2.424569 0.354757 -5.608748 -4.896654 -83.633581 -72.812336 115.062290 -5.355506 1.237501 -7.592763 -5.588101 -0.613475 -0.056734 3.735824 -6.542352 11.327148 67.476491 -55.054256 -108.626132 3.396825 5.392201 3.494901 0.622893 -59.457295 12.061457 166.610709 86.606196 164.532408 -10.158906 -23.775173 14.653931 -0.013679 0.018075 0.206208 4.662999 -58.207012 -2.807132 121.428236 78.056666 120.003445 -6.061284 -19.441571 -0.957371 -0.013152 0.090938 -0.009420
-52.250946 52.885490 -14.428357 -178.473410 -19.077099 -2.395587 0.321713 16.348045 -0.000960 0.040762 1.647582 0.008938 0.072909 2.778955 0.035820 0.373026 14.518865 0.132366 -1.288356 17.058458 1.137259 -1.615710 -7.803893 1.482142 0.728055 -1.207130 2.404685 0.372007 -5.582910 -4.878857 -83.638281 -72.793909 115.058162 -5.439359 1.205578 -7.599446 -5.587328 -0.592724 -0.060555 3.732891 -6.588604 11.303755 67.485073 -55.055575 -108.629020 3.394152 5.381997 3.511304 0.651527 -59.466527 12.067087 167.975507 86.625041 165.906139 -10.187616 -23.760202 14.653088 -0.016444 0.009623 0.185372 4.663653 -58.210799 -2.806406 121.442193 78.060301 120.010675 -6.061319 -19.447924 -0.954794 -0.011195 0.089114 -0.009005
-52.250061 52.887861 -14.432376 -178.471525 -19.071268 -2.399998 0.329114 16.380501 0.035359 0.035890 1.631916 -0.003130 0.070542 2.768136 0.028090 0.376134 14.531355 0.153709 -1.283874 17.073274 1.134515 -1.606254 -7.774667 1.483032 0.726321 -1.214442 2.384335 0.381335 -5.576057 -4.870933 -83.597401 -72.767196 115.013294 -5.475151 1.165589 -7.607138 -5.583503 -0.537599 -0.038708 3.715829 -6.666588 11.248409 67.534239 -55.062379 -108.626682 3.397993 5.388665 3.497999 0.666097 -59.468974 12.054383 168.893706 86.637571 166.797767 -9.966899 -23.761626 14.628184 -0.007698 -0.015017 0.151653 4.648945 -58.214984 -2.789661 121.459592 78.064340 120.023078 -6.062894 -19.448507 -0.952886 -0.008949 0.082806 -0.007688
-52.250164 52.889492 -14.435041 -178.467295 -19.054944 -2.402811 0.326275 16.369833 0.041579 0.047246 1.670093 0.028154 0.058850 2.736096 0.003137 0.380043 14.542858 0.174897 -1.278234 17.089019 1.131900 -1.599812 -7.757785 1.479114 0.729558 -1.202249 2.376028 0.387377 -5.589112 -4.874206 -83.573582 -72.746772 114.985749 -5.488114 1.118250 -7.619917 -5.584272 -0.534344 -0.048126 3.706982 -6.694214 11.228968 67.543650 -55.062052 -108.625947 3.393840 5.363151 3.518687 0.714230 -59.487012 12.004602 169.089286 86.638619 166.987968 -9.780695 -23.762024 14.600249 0.003371 -0.035052 0.124420 4.641455 -58.227746 -2.781872 121.468942 78.071157 120.028906 -6.067893 -19.453113 -0.949755 -0.002754 0.082280 -0.005534
-52.250574 52.890824 -14.437125 -178.461554 -19.033889 -2.407119 0.327447 16.370757 0.060950 0.044315 1.658836 0.021540 0.061356 2.746977 0.013676 0.379685 14.546096 0.187228 -1.285716 17.083721 1.116213 -1.583200 -7.720132 1.484192 0.732407 -1.195250 2.366902 0.384138 -5.609980 -4.885415 -83.542608 -72.729295 114.957569 -5.483998 1.090064 -7.630960 -5.591729 -0.551691 -0.068710 3.702503 -6.710440 11.217877 67.564059 -55.065959 -108.618995 3.391785 5.322934 3.540359 0.732244 -59.508153 11.991902 169.395822 86.642929 167.297835 -9.723725 -23.754383 14.581245 0.005942 -0.042449 0.110888 4.633651 -58.246034 -2.775747 121.467289 78.075044 120.025132 -6.072986 -19.457854 -0.946586 0.003020 0.083180 -0.004525
